<svg xmlns="http://www.w3.org/2000/svg" viewBox="78.2 0 38 50" fill="none">
  <g clip-path="url(#clip0)">
    <path d="M101.045 12.17C101.66 12.1594 102.589 12.4483 103.495 12.8228C105.062 13.4705 106.481 14.3377 107.538 15.7042C107.902 16.175 108.225 16.6772 108.57 17.1631C108.901 17.6289 109.348 17.9424 109.844 18.2217C110.398 18.5341 110.946 18.8817 111.428 19.2943C111.975 19.7618 112.128 20.433 112.018 21.1311C111.942 21.6142 111.803 22.0912 111.656 22.5592C111.395 23.3928 111.059 24.2057 110.839 25.0493C110.338 26.965 109.24 28.4905 107.874 29.8643C106.673 31.0719 105.266 31.9805 103.794 32.8101C102.852 33.3414 101.96 33.9443 101.284 34.8205C100.139 36.3034 100.432 38.1581 102 39.1831C102.332 39.4004 102.702 39.5616 103.063 39.7312C103.285 39.8359 103.43 39.9731 103.338 40.2278C103.251 40.4719 103.05 40.534 102.814 40.4629C102.076 40.2401 101.462 39.8157 100.922 39.2738C99.8354 38.1844 99.514 36.6208 100.126 35.2336C100.458 34.4801 101.001 33.8794 101.626 33.3487C102.484 32.6203 103.489 32.1305 104.439 31.5494C106.352 30.3805 108.006 28.9199 109.181 26.9869C109.549 26.3822 109.8 25.6965 110.039 25.0241C110.395 24.026 110.672 22.9998 111.02 21.9983C111.521 20.559 111.268 19.843 109.765 19.0749C109.095 18.7323 108.47 18.3393 108.015 17.7257C107.76 17.3825 107.524 17.0242 107.289 16.6665C106.372 15.2698 105.064 14.3701 103.569 13.7023C102.619 13.2779 101.651 12.9605 100.593 12.9622C99.2831 12.9644 98.1423 13.4263 97.1136 14.1988C96.6305 14.5616 96.1791 14.9663 95.7105 15.3481C95.5956 15.4422 95.469 15.5217 95.3474 15.6073C95.1471 15.7484 94.9429 15.7753 94.7789 15.5687C94.6166 15.3638 94.7176 15.1729 94.8821 15.0274C95.831 14.1904 96.7666 13.3356 97.918 12.7724C98.7855 12.348 99.6992 12.1448 101.044 12.1689L101.045 12.17Z" fill="#63E4CF"/>
    <path d="M100.992 13.5089C102.899 13.5917 104.66 14.4953 106.116 15.9989C107.151 17.0676 107.969 18.3032 108.574 19.6703C109.072 20.7955 109.031 21.9627 108.747 23.1244C108.312 24.904 107.607 26.5645 106.304 27.8873C105.748 28.4528 105.107 28.9488 104.451 29.3977C103.194 30.2587 101.877 31.0319 100.627 31.9018C99.7433 32.5165 98.9885 33.2852 98.583 34.3219C98.4719 34.6063 98.4061 34.9098 98.3369 35.2081C98.265 35.5177 98.0982 35.67 97.8505 35.6213C97.6234 35.5765 97.5409 35.3822 97.5799 35.0659C97.7389 33.7806 98.4346 32.797 99.3506 31.9556C100.613 30.7967 102.107 29.9648 103.545 29.0579C104.671 28.3475 105.72 27.5615 106.483 26.443C107.469 24.997 108.044 23.3976 108.189 21.6576C108.262 20.7888 107.971 19.9742 107.53 19.237C106.859 18.1168 106.15 17.0156 105.156 16.1479C103.874 15.0282 102.423 14.282 100.673 14.3178C99.5029 14.3419 98.4558 14.7539 97.5342 15.4643C96.6137 16.1736 95.7156 16.9126 94.8068 17.6375C94.7198 17.707 94.6233 17.7635 94.5335 17.8296C94.37 17.9499 94.2049 17.9774 94.0677 17.8038C93.9287 17.6291 93.9427 17.4422 94.0766 17.2647C94.0933 17.2429 94.1151 17.2244 94.1368 17.207C95.2481 16.3192 96.3309 15.3921 97.4801 14.5563C98.4452 13.8543 99.5631 13.5033 100.994 13.5089H100.992Z" fill="#63E4CF"/>
    <path d="M101.024 14.884C102.176 14.8952 103.211 15.2798 104.139 15.9387C105.572 16.9559 106.59 18.3129 107.25 19.9403C107.684 21.0107 107.64 22.1091 107.388 23.2097C106.849 25.5693 105.475 27.3003 103.431 28.5476C101.838 29.52 100.213 30.4527 98.8206 31.7218C98.7665 31.7711 98.7018 31.8119 98.6365 31.8461C98.429 31.9552 98.2577 31.8909 98.1216 31.7173C97.9788 31.5354 98.0669 31.3915 98.2053 31.2543C98.9573 30.5098 99.8292 29.9242 100.709 29.3481C101.844 28.6047 103.023 27.92 104.099 27.0993C105.871 25.7474 106.699 23.8624 106.797 21.6573C106.839 20.7358 106.482 19.9084 106.005 19.1342C105.364 18.0924 104.599 17.1653 103.567 16.4857C101.898 15.3862 100.196 15.3767 98.5082 16.4045C97.8371 16.8132 97.2441 17.3495 96.6037 17.8119C95.8885 18.3286 95.1599 18.828 94.4364 19.3335C94.3912 19.3654 94.3399 19.39 94.2886 19.4113C94.0827 19.4975 93.8713 19.5541 93.7095 19.3402C93.5767 19.165 93.6543 18.955 93.8964 18.7759C95.1304 17.8656 96.3577 16.947 97.6 16.0479C98.6181 15.3112 99.74 14.8566 101.022 14.8835L101.024 14.884Z" fill="#63E4CF"/>
    <path d="M113.509 20.7409C113.534 21.4345 113.291 22.0755 112.992 22.6846C112.483 23.7208 112.123 24.7996 111.92 25.9349C111.697 27.1895 111.019 28.2033 110.225 29.16C108.631 31.0797 106.768 32.6629 104.577 33.8665C103.923 34.2248 103.342 34.7208 102.748 35.1798C102.398 35.4508 102.158 35.8225 102.018 36.2496C101.663 37.3307 102.294 38.1424 103.22 38.4979C103.536 38.6194 103.881 38.677 104.218 38.7302C104.445 38.766 104.586 38.8483 104.592 39.0902C104.598 39.3012 104.412 39.51 104.188 39.4994C103.94 39.4876 103.688 39.4513 103.447 39.3897C102.902 39.2508 102.387 39.0264 101.972 38.6395C101.017 37.7505 100.858 36.5329 101.542 35.4189C102.105 34.5019 102.959 33.9045 103.851 33.3559C104.705 32.8308 105.606 32.3695 106.409 31.7744C108.01 30.5865 109.368 29.1421 110.499 27.4934C110.904 26.9017 111.078 26.2092 111.229 25.5145C111.468 24.4105 111.8 23.3407 112.291 22.3168C112.498 21.8874 112.655 21.4104 112.716 20.9402C112.843 19.9543 112.381 19.1997 111.587 18.6667C111.087 18.332 110.537 18.0739 110.011 17.78C109.801 17.663 109.583 17.5549 109.388 17.4166C109.222 17.2996 109.225 17.1009 109.344 16.9716C109.432 16.877 109.635 16.7829 109.735 16.8221C110.783 17.2313 111.834 17.6551 112.622 18.5072C113.197 19.1286 113.537 19.8597 113.511 20.7403L113.509 20.7409Z" fill="#63E4CF"/>
    <path d="M83.7004 7.55261C83.6167 6.52925 83.2608 5.73095 82.3727 5.24502C82.2266 5.16497 82.0821 5.07428 81.9588 4.96399C81.816 4.83579 81.7094 4.66784 81.8266 4.46911C81.9393 4.27709 82.144 4.2435 82.3141 4.33251C82.6567 4.51221 82.9908 4.71543 83.3049 4.94216C84.0117 5.45384 84.2778 6.19896 84.3894 7.03421C84.4346 7.37067 84.5456 7.70488 84.6716 8.0223C84.868 8.51662 85.2674 8.80997 85.7505 9.00255C85.7578 8.9796 85.7701 8.95776 85.765 8.95273C85.0348 8.19473 84.8965 7.21336 84.728 6.23647C84.5076 4.95727 83.7038 4.18136 82.5099 3.7962C82.2589 3.71559 81.9599 3.75086 81.6882 3.77941C81.4043 3.80964 81.1979 3.72678 81.1382 3.48942C81.0908 3.30132 81.2386 3.12833 81.5025 3.04772C82.303 2.80252 83.0243 3.00293 83.6965 3.44799C84.8044 4.18136 85.4192 5.20751 85.5603 6.54045C85.6373 7.26766 85.8398 7.97304 86.3134 8.55525C87.2255 9.6749 88.4132 10.0858 89.8134 9.80758C90.3172 9.70737 90.7964 9.48176 91.2856 9.30877C91.7207 9.15482 92.1587 9.06693 92.6222 9.17274C93.2264 9.31045 93.6922 9.81485 93.8049 10.4782C93.9053 11.0655 93.6431 11.6858 93.1282 11.9914C92.8599 12.151 92.5676 12.2842 92.2691 12.3732C92.1369 12.4124 91.935 12.3531 91.8145 12.2674C91.5779 12.1 91.6293 11.8117 91.8954 11.6959C92.1157 11.6001 92.3539 11.5402 92.5631 11.4255C92.9425 11.2166 93.102 10.8886 93.0261 10.5549C92.9196 10.0841 92.5453 9.81709 92.0744 9.92682C91.6968 10.0147 91.318 10.1278 90.9654 10.2868C89.8502 10.7884 88.7089 10.8416 87.5753 10.4363C86.5734 10.078 85.5826 9.67042 84.6304 9.19793C83.8979 8.83404 83.2697 8.28318 82.7515 7.6405C82.5557 7.39754 82.4458 7.07508 82.3365 6.77446C82.2678 6.58524 82.3761 6.42345 82.5769 6.3697C82.766 6.31932 82.9144 6.3781 83.0193 6.5634C83.1788 6.84555 83.3551 7.11875 83.5292 7.3925C83.561 7.44288 83.6179 7.47703 83.6999 7.55317L83.7004 7.55261Z" fill="#63E4CF"/>
    <path d="M106.269 21.8777C106.148 23.7828 105.374 25.4449 103.838 26.6838C103.024 27.341 102.112 27.8774 101.237 28.4573C100.571 28.899 99.8934 29.3245 99.2206 29.7567C99.1503 29.8015 99.08 29.8474 99.0047 29.8832C98.8095 29.9761 98.6159 30.0399 98.4792 29.7891C98.3576 29.5658 98.4335 29.3939 98.6203 29.2573C98.8535 29.0877 99.0862 28.9169 99.3283 28.7613C100.392 28.0783 101.472 27.4183 102.523 26.7163C103.991 25.7349 105.031 24.4328 105.395 22.6559C105.596 21.6751 105.439 20.7525 104.984 19.8663C104.424 18.7741 103.651 17.9002 102.533 17.3588C101.544 16.8802 100.556 16.9222 99.5709 17.3572C98.6081 17.7826 97.812 18.4634 96.9825 19.0921C96.1368 19.7331 95.2777 20.3545 94.2958 20.7743C94.1608 20.832 93.9762 20.8801 93.8512 20.8331C93.574 20.729 93.5801 20.3489 93.8546 20.1848C94.1887 19.9844 94.5547 19.8321 94.8721 19.6093C95.8377 18.9303 96.7744 18.2087 97.7473 17.5408C98.2884 17.1696 98.8496 16.794 99.4543 16.5561C101.06 15.9251 102.56 16.209 103.892 17.2989C105.171 18.3464 105.971 19.6883 106.232 21.3358C106.257 21.4915 106.254 21.6516 106.268 21.8783L106.269 21.8777Z" fill="#63E4CF"/>
    <path d="M101.133 17.588C102.559 17.6563 103.6 18.3644 104.315 19.5753C105.428 21.4625 105.03 23.83 103.372 25.4154C102.366 26.3777 101.163 27.0467 99.9826 27.7515C99.6479 27.9514 99.3071 28.1412 98.9696 28.336C98.7581 28.458 98.5751 28.4345 98.4463 28.2156C98.3146 27.9911 98.4028 27.8333 98.6075 27.7056C99.6407 27.0624 100.685 26.436 101.699 25.7631C102.739 25.0722 103.587 24.2039 104.011 22.9819C104.685 21.0432 103.401 19.0469 102.076 18.5755C101.231 18.2749 100.404 18.3566 99.6568 18.7877C98.863 19.245 98.1149 19.7886 97.3774 20.3356C96.53 20.9643 95.6436 21.5162 94.6785 21.9417C94.4699 22.0335 94.2858 22.052 94.1524 21.818C94.0392 21.6192 94.0665 21.4323 94.269 21.3444C95.9097 20.6317 97.219 19.4169 98.6828 18.4361C99.2351 18.0661 99.8242 17.7727 100.487 17.6619C100.697 17.6266 100.911 17.6126 101.132 17.5874L101.133 17.588Z" fill="#63E4CF"/>
    <path d="M103.682 21.8033C103.682 22.8753 103.225 23.7414 102.482 24.4787C101.613 25.3397 100.562 25.9404 99.5252 26.5623C99.1748 26.7728 98.8189 26.9755 98.4591 27.1692C98.1707 27.3243 97.981 27.2923 97.875 27.0975C97.7607 26.887 97.8215 26.6721 98.0837 26.5108C98.6767 26.1453 99.2831 25.8015 99.8789 25.4393C100.643 24.9747 101.381 24.4725 102.012 23.8298C102.595 23.2348 102.937 22.5355 102.917 21.6784C102.886 20.3763 101.681 19.4795 100.457 19.9088C99.9486 20.0869 99.4577 20.3651 99.017 20.6797C97.8209 21.534 96.6405 22.4101 95.3206 23.0679C95.1929 23.1317 94.992 23.1345 94.8637 23.078C94.7761 23.0394 94.7092 22.8451 94.7176 22.7264C94.7254 22.6217 94.828 22.4801 94.9262 22.432C96.3777 21.7148 97.6313 20.6999 98.9428 19.7711C99.5453 19.3445 100.207 19.0176 100.967 18.9767C102.388 18.9 103.606 20.0589 103.682 21.5514C103.687 21.6353 103.682 21.7193 103.682 21.8033Z" fill="#63E4CF"/>
    <path d="M114.917 20.8668C114.92 21.4922 114.709 22.1746 114.355 22.7893C113.699 23.9285 113.322 25.1506 113.097 26.4365C112.879 27.686 112.235 28.72 111.423 29.6684C110.282 30.9985 109.122 32.3074 107.758 33.4147C107.427 33.6829 107.059 33.9051 106.701 34.138C106.512 34.2606 106.303 34.335 106.132 34.1111C105.966 33.8939 106.009 33.6672 106.283 33.4964C107.479 32.7507 108.475 31.775 109.433 30.7572C110.338 29.7954 111.245 28.8331 111.881 27.6547C112.209 27.0467 112.366 26.3923 112.476 25.7177C112.678 24.4816 113.138 23.3418 113.736 22.2462C114.184 21.4267 114.3 20.5567 113.954 19.661C113.904 19.5317 113.811 19.4186 113.767 19.2881C113.733 19.1851 113.692 19.0217 113.743 18.9662C113.823 18.8778 113.979 18.8112 114.099 18.8156C114.361 18.8257 114.503 19.0306 114.601 19.2478C114.819 19.7282 114.943 20.2314 114.917 20.8663V20.8668Z" fill="#63E4CF"/>
    <path d="M89.0854 9.44497C87.4559 9.44274 86.2861 8.42722 86.0183 6.77518C85.9436 6.31557 85.9201 5.84531 85.813 5.39466C85.5542 4.30524 84.8267 3.55956 83.9336 2.95607C83.1554 2.4304 82.2985 2.27645 81.3792 2.44551C81.2698 2.46567 81.1588 2.4819 81.0478 2.49086C80.818 2.51045 80.6422 2.44215 80.5943 2.18631C80.5463 1.93103 80.6796 1.80395 80.9061 1.74125C82.1535 1.3936 83.3161 1.58842 84.3849 2.31283C85.3545 2.97007 86.1405 3.79524 86.4892 4.94288C86.6308 5.40921 86.6705 5.91137 86.7179 6.40122C86.83 7.56005 87.4978 8.39531 88.5772 8.63883C89.1697 8.77263 89.7493 8.67746 90.2631 8.34604C90.6368 8.10476 90.9799 7.81701 91.3381 7.55165C91.4569 7.46376 91.5701 7.3378 91.7035 7.30813C91.8373 7.27846 92.0644 7.30029 92.1207 7.38539C92.1899 7.49007 92.1866 7.74703 92.1051 7.82933C91.7408 8.19713 91.362 8.5599 90.9425 8.86108C90.3663 9.27479 89.7152 9.44609 89.0838 9.44497H89.0854Z" fill="#63E4CF"/>
    <path d="M98.4374 36.7024C98.4825 35.3997 99.0147 34.3243 99.8114 33.3591C100.558 32.455 101.512 31.8123 102.507 31.2201C103.298 30.7498 104.08 30.2644 104.859 29.7752C105.196 29.563 105.434 29.5389 105.573 29.7416C105.72 29.956 105.649 30.1732 105.302 30.3988C104.71 30.784 104.095 31.1333 103.504 31.5196C102.695 32.0475 101.863 32.548 101.108 33.1458C100.183 33.8792 99.5441 34.8326 99.3238 36.0289C99.1029 37.2309 99.4616 38.2761 100.253 39.1505C100.768 39.7182 101.383 40.1946 101.965 40.6995C102.203 40.9067 102.272 41.0651 102.144 41.2638C102.027 41.4447 101.767 41.5034 101.547 41.3478C100.335 40.4868 99.2418 39.5082 98.7168 38.0594C98.5612 37.63 98.5277 37.1564 98.4379 36.703L98.4374 36.7024Z" fill="#63E4CF"/>
    <path d="M100.876 20.3652C101.969 20.3675 102.63 21.3354 102.314 22.3789C102.096 23.1016 101.604 23.6385 101.007 24.0371C99.842 24.8158 98.6354 25.5313 97.4455 26.273C97.2647 26.3856 97.1007 26.3514 96.983 26.1846C96.8558 26.0049 96.8385 25.8034 97.0416 25.669C97.4204 25.4182 97.8114 25.1859 98.2008 24.9507C99.234 24.326 100.299 23.7421 101.14 22.8514C101.331 22.6488 101.468 22.3823 101.585 22.1248C101.713 21.846 101.629 21.5689 101.427 21.35C101.223 21.1283 100.944 21.0891 100.682 21.2016C100.342 21.3466 99.9977 21.5028 99.6998 21.7172C98.5155 22.5698 97.3384 23.4319 96.0559 24.1345C95.9432 24.1961 95.8216 24.242 95.7016 24.2896C95.5136 24.3646 95.3373 24.2957 95.2871 24.1272C95.2475 23.9946 95.3156 23.821 95.3636 23.6743C95.382 23.6172 95.4762 23.5837 95.5382 23.5428C96.824 22.6935 98.1032 21.8331 99.4008 21.0023C99.779 20.7599 100.207 20.5942 100.617 20.4067C100.715 20.3624 100.836 20.3714 100.876 20.3652H100.876Z" fill="#63E4CF"/>
    <path d="M100.549 11.5466C99.5598 11.5718 98.6611 11.8914 97.7757 12.2659C97.6731 12.3096 97.5749 12.3667 97.4684 12.3964C97.2491 12.4585 97.0779 12.3751 96.988 12.1713C96.901 11.9737 96.9618 11.799 97.1537 11.6966C98.5634 10.9431 100.047 10.5702 101.639 10.9257C104.251 11.5091 106.517 12.7356 108.369 14.6911C108.628 14.9643 108.832 15.2951 109.034 15.6165C109.172 15.837 109.107 16.0671 108.911 16.1729C108.703 16.2849 108.545 16.2144 108.412 16.0246C106.859 13.7965 104.599 12.6276 102.104 11.8315C101.606 11.6725 101.068 11.6384 100.548 11.5471L100.549 11.5466Z" fill="#63E4CF"/>
    <path d="M110.463 21.4112C110.301 22.1367 110.173 22.86 109.977 23.5648C109.457 25.433 108.669 27.169 107.369 28.6351C107.183 28.844 106.987 29.0433 106.785 29.2347C106.539 29.467 106.297 29.4978 106.146 29.3349C105.972 29.1463 105.991 28.9117 106.245 28.676C107.122 27.8609 107.79 26.8941 108.32 25.8271C108.97 24.5165 109.39 23.131 109.59 21.6821C109.66 21.1733 109.533 20.6823 109.313 20.2182C109.258 20.1006 109.176 19.987 109.155 19.8633C109.137 19.7491 109.146 19.5823 109.216 19.5145C109.289 19.4429 109.46 19.4199 109.569 19.4485C109.856 19.5229 110.012 19.7659 110.094 20.0228C110.238 20.4701 110.338 20.9309 110.463 21.4112Z" fill="#63E4CF"/>
    <path d="M97.0137 46.2953C97.2541 47.2655 97.8215 47.9904 98.6666 48.4668C99.181 48.7568 99.7366 48.9746 100.281 49.2092C100.605 49.3491 100.708 49.5434 100.563 49.8082C100.45 50.0164 100.249 50.0271 100.076 49.9716C98.4507 49.4504 97.0115 48.6667 96.4034 46.9352C96.1886 46.3233 96.1585 45.6448 96.0542 44.9948C96.0235 44.8039 96.0921 44.6382 96.2918 44.5722C96.4815 44.5095 96.6026 44.6153 96.7136 44.7597C97.4327 45.6935 98.26 46.517 99.2089 47.2162C99.2535 47.2492 99.2987 47.2828 99.3411 47.3186C99.514 47.4648 99.509 47.6523 99.4175 47.8258C99.3221 48.0072 99.133 48.061 98.9612 47.9692C98.718 47.8393 98.4792 47.6876 98.2728 47.5056C97.918 47.1921 97.5911 46.8478 97.2514 46.5175C97.1733 46.442 97.0924 46.3692 97.0131 46.2947L97.0137 46.2953Z" fill="#63E4CF"/>
    <path d="M89.0062 8.27214C88.2559 8.26542 87.5736 7.80357 87.3594 7.07916C87.2317 6.64697 87.211 6.18344 87.1301 5.73614C87.0576 5.33419 86.9695 4.9356 86.8869 4.53532C86.8679 4.44463 86.8473 4.35338 86.8194 4.26493C86.7642 4.09026 86.8049 3.92064 86.9656 3.86242C87.148 3.7958 87.3711 3.80084 87.486 4.00405C87.5898 4.18823 87.6885 4.38921 87.7254 4.59466C87.8353 5.20711 87.9167 5.82459 88.0032 6.44152C88.0679 6.90617 88.2564 7.29357 88.7178 7.45704C89.1702 7.61715 89.5657 7.44136 89.8832 7.11946C90.4265 6.5686 91.0474 6.17 91.8134 6.02053C91.8948 6.00486 92.0053 5.96343 92.056 5.99926C92.1966 6.09891 92.3634 6.21199 92.4264 6.35978C92.5034 6.54117 92.3433 6.66377 92.1732 6.72759C92.0689 6.76678 91.9629 6.8026 91.8552 6.82948C91.3001 6.96775 90.8332 7.25158 90.4226 7.65018C90.0321 8.02918 89.5719 8.27886 89.0068 8.2727L89.0062 8.27214Z" fill="#63E4CF"/>
    <path d="M81.8706 0.266151C83.402 0.261113 84.4942 0.758795 85.4722 1.53135C85.8861 1.85829 86.2515 2.2468 86.6347 2.61181C86.7011 2.67507 86.7898 2.75736 86.7932 2.83462C86.8004 2.99585 86.8099 3.20746 86.719 3.30711C86.6476 3.38548 86.3954 3.381 86.2799 3.31495C86.1009 3.2125 85.9703 3.02608 85.8186 2.87548C85.0594 2.11972 84.2315 1.47313 83.1738 1.18874C82.4871 1.004 81.7948 1.04319 81.1002 1.12436C80.8425 1.15459 80.5842 1.18538 80.3259 1.20777C80.0464 1.23185 79.8568 1.08797 79.825 0.83773C79.7971 0.618839 79.9248 0.471046 80.2183 0.436897C80.8525 0.363001 81.4891 0.305899 81.8712 0.267271L81.8706 0.266151Z" fill="#63E4CF"/>
    <path d="M97.6145 36.5469C97.7819 36.5737 97.9208 36.6773 97.9431 36.8956C97.9632 37.0905 97.9833 37.2858 97.9855 37.4812C97.9916 38.0382 98.1908 38.5225 98.5434 38.939C99.3244 39.8616 100.117 40.7747 100.905 41.6911C100.996 41.7969 101.098 41.8932 101.181 42.0046C101.296 42.1585 101.304 42.3478 101.154 42.4558C101.038 42.5392 100.834 42.5974 100.713 42.5515C100.542 42.4872 100.389 42.3343 100.264 42.1888C99.533 41.3328 98.8145 40.4662 98.0853 39.6085C97.9052 39.3969 97.7138 39.1915 97.5052 39.009C97.2525 38.7873 97.0857 38.537 97.1041 38.19C97.1269 37.7622 97.1442 37.334 97.1833 36.9074C97.2039 36.6824 97.3763 36.5441 97.6145 36.5474V36.5469Z" fill="#63E4CF"/>
    <path d="M104.132 38.2661C103.638 38.2314 103.111 38.0735 102.715 37.6044C102.176 36.9656 102.493 35.7749 103.281 35.4967C103.445 35.4385 103.609 35.4166 103.731 35.5868C103.854 35.7564 103.787 35.9053 103.675 36.0431C103.593 36.1438 103.498 36.234 103.413 36.3325C103.093 36.7037 103.167 37.1286 103.605 37.3458C104.131 37.6061 104.667 37.5098 105.163 37.2797C105.589 37.0821 105.978 36.8044 106.382 36.5592C106.477 36.5016 106.564 36.4299 106.659 36.3717C106.83 36.2653 107.007 36.2211 107.159 36.3997C107.317 36.5855 107.212 36.7484 107.09 36.8979C106.505 37.6134 105.15 38.2577 104.132 38.2667V38.2661Z" fill="#63E4CF"/>
    <path d="M104.303 37.0535C104.031 37.0328 103.883 36.9259 103.83 36.7087C103.774 36.4769 103.971 36.4187 104.111 36.3571C105.353 35.8118 106.467 35.0499 107.571 34.279C108.017 33.9672 108.403 33.5675 108.816 33.2075C108.872 33.1588 108.924 33.0715 108.983 33.0659C109.137 33.0525 109.325 33.0239 109.442 33.0956C109.605 33.1947 109.589 33.4012 109.465 33.5401C109.154 33.886 108.867 34.2706 108.499 34.5422C107.37 35.3752 106.231 36.1998 104.962 36.815C104.739 36.9231 104.494 36.9858 104.303 37.0535H104.303Z" fill="#63E4CF"/>
    <path d="M80.8195 5.7015C80.7609 5.65167 80.6042 5.57386 80.5311 5.44678C80.328 5.09353 80.1551 4.72181 79.9783 4.35344C79.5041 3.36536 79.031 2.37559 78.563 1.38414C78.4481 1.14062 78.3426 0.892059 78.2523 0.638459C78.1418 0.328317 78.2199 0.127341 78.462 0.0355302C78.6985 -0.0546012 78.8603 0.0243338 79.0015 0.328318C79.6246 1.66685 80.241 3.00875 80.8636 4.34784C80.9891 4.61712 81.1397 4.87464 81.2636 5.14503C81.4047 5.45349 81.2502 5.69702 80.8195 5.7015Z" fill="#63E4CF"/>
    <path d="M100.965 43.8286C100.864 43.9579 100.795 44.1326 100.689 44.1594C100.554 44.1941 100.337 44.16 100.246 44.0665C99.6764 43.4809 99.1168 42.8836 98.5846 42.2639C98.0642 41.6581 97.5788 41.0227 97.0818 40.3974C96.9953 40.2888 96.9205 40.169 96.8542 40.047C96.7476 39.8499 96.7197 39.654 96.9356 39.5051C97.1548 39.3539 97.3222 39.458 97.4633 39.6321C97.7618 40.0005 98.0446 40.3812 98.3526 40.7411C99.1258 41.6441 99.9107 42.5371 100.688 43.4367C100.781 43.5447 100.854 43.6707 100.964 43.8286H100.965Z" fill="#63E4CF"/>
    <path d="M96.2422 25.4566C96.1435 25.3497 96.0057 25.2585 95.956 25.1325C95.8807 24.9422 95.961 24.7714 96.1501 24.6634C96.5775 24.4198 97.0182 24.1965 97.4249 23.921C98.2616 23.3545 99.0795 22.7583 99.9062 22.1766C100.103 22.0384 100.293 21.8771 100.51 21.7876C100.622 21.7417 100.822 21.7887 100.922 21.8693C101.06 21.9801 101.027 22.1604 100.901 22.2908C100.727 22.4711 100.557 22.6581 100.363 22.8143C99.1966 23.7565 97.9481 24.576 96.6299 25.2887C96.5256 25.3447 96.4123 25.3839 96.2428 25.4566H96.2422Z" fill="#63E4CF"/>
    <path d="M98.0519 6.42286C98.0552 6.82874 97.8109 7.00788 97.5191 6.88304C97.2653 6.77443 97.0254 6.62552 96.7961 6.46933C96.1557 6.03379 95.4779 5.6923 94.6902 5.6699C94.3421 5.65983 93.9857 5.69733 93.6454 5.77067C93.3854 5.82665 93.2783 5.70069 93.189 5.51987C93.0931 5.32561 93.1327 5.12184 93.3352 5.04738C93.6353 4.93654 93.9527 4.83689 94.2685 4.81337C95.0177 4.75683 95.7251 4.96677 96.3867 5.30154C96.8742 5.54842 97.3423 5.83785 97.8053 6.12952C97.9297 6.20789 98.0056 6.3652 98.0524 6.42342L98.0519 6.42286Z" fill="#63E4CF"/>
    <path d="M96.5378 41.5648C96.6589 41.44 96.7443 41.2883 96.8664 41.2468C96.959 41.2149 97.1392 41.2888 97.2123 41.3745C97.8287 42.0938 98.4173 42.8378 99.041 43.5505C99.4075 43.9693 99.8298 44.3382 100.212 44.7435C100.312 44.8499 100.408 45.0094 100.41 45.1454C100.412 45.2507 100.283 45.4119 100.177 45.45C100.075 45.4869 99.8911 45.4371 99.8058 45.3576C99.3372 44.9215 98.8675 44.4826 98.4374 44.0096C97.8884 43.4055 97.3702 42.7723 96.853 42.1398C96.7286 41.988 96.6595 41.791 96.5384 41.5648H96.5378Z" fill="#63E4CF"/>
    <path d="M114.359 26.389C114.188 27.8709 113.574 29.1305 112.483 30.1494C112.396 30.2311 112.294 30.3039 112.187 30.3559C112.025 30.4343 111.858 30.4377 111.742 30.2664C111.633 30.1074 111.65 29.954 111.781 29.809C112.012 29.5531 112.248 29.3018 112.464 29.0342C113.145 28.1939 113.525 27.2288 113.63 26.1522C113.661 25.8354 113.774 25.7172 114.004 25.7352C114.266 25.7553 114.391 25.921 114.371 26.2216C114.368 26.2776 114.363 26.333 114.358 26.389H114.359Z" fill="#63E4CF"/>
    <path d="M93.8981 13.2042C94.3075 13.3268 94.6316 13.2277 94.944 13.0771C95.17 12.9685 95.382 12.8319 95.6068 12.7205C95.8796 12.585 96.1479 12.6438 96.2171 12.8772C96.2522 12.9954 96.2327 13.2064 96.1529 13.2714C95.0361 14.1827 93.9327 14.4442 92.7154 13.4158C92.4236 13.1695 92.4744 12.917 92.822 12.7524C93.0987 12.6214 93.372 12.482 93.6481 12.3499C93.8356 12.2609 94.0292 12.1629 94.201 12.3756C94.3522 12.5632 94.3198 12.7451 94.1073 12.9679C94.0448 13.0334 93.9862 13.1028 93.8975 13.2031L93.8981 13.2042Z" fill="#63E4CF"/>
    <path d="M116.233 21.0993C116.195 21.9122 115.915 22.6064 115.538 23.267C115.243 23.7837 114.939 24.2942 114.641 24.8093C114.491 25.0696 114.321 25.1424 114.098 25.031C113.878 24.9212 113.806 24.732 113.949 24.4633C114.233 23.9309 114.548 23.4148 114.848 22.8908C115.198 22.2794 115.477 21.6446 115.466 20.9202C115.463 20.6867 115.531 20.5126 115.788 20.4818C116.014 20.455 116.168 20.5916 116.218 20.8603C116.235 20.951 116.23 21.0456 116.233 21.0993Z" fill="#63E4CF"/>
    <path d="M96.7454 42.9645C96.8302 43.0479 96.9574 43.1649 97.0751 43.2898C97.7886 44.0472 98.501 44.8063 99.2128 45.5649C99.321 45.6802 99.4303 45.7939 99.5319 45.9142C99.6579 46.0631 99.7076 46.226 99.5637 46.3918C99.4197 46.558 99.2379 46.5429 99.0906 46.4209C98.7062 46.1006 98.3146 45.7832 97.9665 45.4249C97.4427 44.8847 96.9523 44.3126 96.4536 43.7483C96.3761 43.6604 96.3086 43.5507 96.2751 43.4392C96.1909 43.1571 96.3872 42.932 96.7448 42.964L96.7454 42.9645Z" fill="#63E4CF"/>
    <path d="M100.557 7.96455C100.004 7.88001 99.4549 7.7966 98.906 7.71095C98.6599 7.67232 98.5584 7.50941 98.5707 7.27596C98.5835 7.03244 98.7525 6.9188 98.9662 6.94063C99.5542 6.99997 100.142 7.06939 100.724 7.17072C100.954 7.21046 101.045 7.42656 100.991 7.65272C100.94 7.8677 100.774 7.96399 100.556 7.96511L100.557 7.96455Z" fill="#63E4CF"/>
    <path d="M90.9018 11.4701C90.8192 11.4605 90.711 11.4807 90.6603 11.4354C90.5582 11.3452 90.4516 11.2305 90.4137 11.1051C90.3651 10.9444 90.4656 10.8246 90.6352 10.7781C91.1428 10.6398 91.6477 10.487 92.1603 10.3711C92.2635 10.3476 92.456 10.4333 92.5023 10.5228C92.5553 10.6253 92.5302 10.8139 92.4655 10.9186C92.4008 11.0228 92.2529 11.0933 92.1269 11.137C91.7291 11.2758 91.3241 11.395 90.9219 11.5221L90.9012 11.4689L90.9018 11.4701Z" fill="#63E4CF"/>
    <path d="M102.319 8.50729C102.236 8.50729 102.152 8.50897 102.069 8.50729C101.779 8.50169 101.651 8.38749 101.633 8.12213C101.617 7.86797 101.773 7.65804 102.041 7.66419C102.37 7.67203 102.702 7.71906 103.022 7.79407C103.117 7.81647 103.233 7.98721 103.237 8.0947C103.242 8.2033 103.143 8.38189 103.05 8.41548C102.821 8.49721 102.569 8.51233 102.326 8.55431C102.324 8.53864 102.322 8.52296 102.319 8.50729Z" fill="#63E4CF"/>
    <path d="M105.759 34.7121C105.713 34.7687 105.65 34.9086 105.544 34.968C105.238 35.1387 104.917 35.2854 104.596 35.4254C104.391 35.5144 104.228 35.4242 104.137 35.2328C104.039 35.0262 104.123 34.865 104.315 34.7709C104.639 34.6125 104.962 34.4457 105.301 34.3236C105.572 34.2262 105.76 34.3768 105.759 34.7121H105.759Z" fill="#63E4CF"/>
    <path d="M97.4583 8.42877C97.2112 8.43549 96.949 8.19084 96.9339 7.94004C96.9205 7.71779 97.0712 7.57168 97.3228 7.56328C97.5995 7.55377 97.8639 7.77657 97.865 8.01954C97.8661 8.24851 97.6932 8.42261 97.4583 8.42877Z" fill="#63E4CF"/>
  </g>
  <defs>
    <clipPath id="clip0">
      <rect width="38.0298" height="50" fill="white" transform="translate(78.2033)"/>
    </clipPath>
  </defs>
</svg>
